<?xml version="1.0" encoding="UTF-8"?>
<svg width="30px" height="30px" viewBox="0 0 30 30" version="1.1" xmlns="http://www.w3.org/2000/svg" xmlns:xlink="http://www.w3.org/1999/xlink">
    <!-- Generator: Sketch 51.2 (57519) - http://www.bohemiancoding.com/sketch -->
    <title>github</title>
    <desc>Created with Sketch.</desc>
    <defs></defs>
    <g id="Symbols" stroke="none" stroke-width="1" fill="none" fill-rule="evenodd">
        <g id="Footer" transform="translate(-1129.000000, -398.000000)" fill-rule="nonzero">
            <g id="Group-60">
                <g id="Group-59" transform="translate(126.000000, 84.000000)">
                    <g id="Group-58" transform="translate(0.000000, 314.000000)">
                        <g id="Group-57" transform="translate(878.000000, 0.000000)">
                            <g id="github" transform="translate(125.000000, 0.000000)">
                                <rect id="Rectangle-17-Copy-2" fill-opacity="0.01" fill="#EBEBEB" x="0" y="0" width="30" height="30"></rect>
                                <path d="M14.999125,9 C11.13425,9 8,12.0696497 8,15.8563478 C8,18.8850234 10.0055,21.4544466 12.788,22.3618541 C13.138,22.4250227 13.26575,22.2133227 13.26575,22.0314997 C13.26575,21.8684566 13.259625,21.437374 13.256125,20.8654426 C11.30925,21.2794526 10.898,19.9460842 10.898,19.9460842 C10.580375,19.1539165 10.121,18.9430702 10.121,18.9430702 C9.484875,18.5179629 10.16825,18.5264992 10.16825,18.5264992 C10.870875,18.5751561 11.240125,19.233304 11.240125,19.233304 C11.864875,20.2807067 12.879,19.9785221 13.278,19.8026745 C13.341,19.3596411 13.522125,19.0574564 13.7225,18.885877 C12.1685,18.7125903 10.534,18.12444 10.534,15.4978237 C10.534,14.7491911 10.807,14.1371391 11.255,13.6573996 C11.182375,13.4841129 10.942625,12.7866981 11.32325,11.8434381 C11.32325,11.8434381 11.91125,11.6590542 13.24825,12.5459747 C13.8065,12.3940288 14.405,12.3180558 15.000875,12.3154949 C15.595,12.3189094 16.194375,12.3940288 16.7535,12.5468283 C18.089625,11.6599078 18.67675,11.8442917 18.67675,11.8442917 C19.05825,12.7884053 18.8185,13.4849666 18.74675,13.6582532 C19.195625,14.1379927 19.466,14.7500447 19.466,15.4986773 C19.466,18.1321226 17.82975,18.7117367 16.2705,18.8816089 C16.521625,19.0933089 16.745625,19.511587 16.745625,20.1509551 C16.745625,21.0677526 16.736875,21.8069953 16.736875,22.0314997 C16.736875,22.21503 16.862875,22.4284372 17.218125,22.3610005 C19.99625,21.4527393 22,18.8841698 22,15.8563478 C22,12.0696497 18.86575,9 14.999125,9 Z" id="Shape" fill="#999999" opacity="0.799999952"></path>
                            </g>
                        </g>
                    </g>
                </g>
            </g>
        </g>
    </g>
</svg>