<?xml version="1.0" encoding="UTF-8"?>
<svg width="30px" height="30px" viewBox="0 0 30 30" version="1.1" xmlns="http://www.w3.org/2000/svg" xmlns:xlink="http://www.w3.org/1999/xlink">
    <!-- Generator: Sketch 51.2 (57519) - http://www.bohemiancoding.com/sketch -->
    <title>twitter</title>
    <desc>Created with Sketch.</desc>
    <defs></defs>
    <g id="Symbols" stroke="none" stroke-width="1" fill="none" fill-rule="evenodd">
        <g id="Footer" transform="translate(-1004.000000, -398.000000)" fill-rule="nonzero">
            <g id="Group-60">
                <g id="Group-59" transform="translate(126.000000, 84.000000)">
                    <g id="Group-58" transform="translate(0.000000, 314.000000)">
                        <g id="Group-57" transform="translate(878.000000, 0.000000)">
                            <g id="twitter">
                                <rect id="Rectangle-17" fill-opacity="0.01" fill="#EBEBEB" x="0" y="0" width="30" height="30"></rect>
                                <path d="M23,10.5358004 C22.405,10.7962578 21.771,10.9688981 21.11,11.0527235 C21.79,10.6475676 22.309,10.010894 22.553,9.24349272 C21.919,9.62070686 21.219,9.88715177 20.473,10.035842 C19.871,9.39617464 19.013,9 18.077,9 C16.261,9 14.799,10.4709356 14.799,12.2741788 C14.799,12.5336383 14.821,12.7831185 14.875,13.0206237 C12.148,12.8879002 9.735,11.5836175 8.114,9.59675676 C7.831,10.086736 7.665,10.6475676 7.665,11.2513098 C7.665,12.384948 8.25,13.3898545 9.122,13.9716424 C8.595,13.9616632 8.078,13.8089813 7.64,13.5684823 L7.64,13.6044075 C7.64,15.1950936 8.777,16.516341 10.268,16.8207069 C10.001,16.8935551 9.71,16.9284823 9.408,16.9284823 C9.198,16.9284823 8.986,16.9165073 8.787,16.8725988 C9.212,18.1688981 10.418,19.1219127 11.852,19.1528482 C10.736,20.0240333 9.319,20.5489397 7.785,20.5489397 C7.516,20.5489397 7.258,20.5369647 7,20.5040333 C8.453,21.4390852 10.175,21.972973 12.032,21.972973 C18.068,21.972973 21.368,16.983368 21.368,12.6583784 C21.368,12.5136798 21.363,12.3739709 21.356,12.2352599 C22.007,11.7742204 22.554,11.19842 23,10.5358004 Z" id="Shape" fill="#999999" opacity="0.785269475"></path>
                            </g>
                        </g>
                    </g>
                </g>
            </g>
        </g>
    </g>
</svg>