<?xml version="1.0" encoding="UTF-8"?>
<svg width="1440px" height="303px" viewBox="0 0 1440 303" version="1.1" xmlns="http://www.w3.org/2000/svg" xmlns:xlink="http://www.w3.org/1999/xlink">
    <!-- Generator: Sketch 51.2 (57519) - http://www.bohemiancoding.com/sketch -->
    <title>bg</title>
    <desc>Created with Sketch.</desc>
    <defs>
        <linearGradient x1="78.5639661%" y1="17.6581011%" x2="27.2334219%" y2="36.6808796%" id="linearGradient-1">
            <stop stop-color="#50C9B4" stop-opacity="0.76" offset="0%"></stop>
            <stop stop-color="#96DED2" stop-opacity="0.64" offset="100%"></stop>
        </linearGradient>
        <polygon id="path-2" points="1 0 1441 0 1441 303 1 303"></polygon>
    </defs>
    <g id="Final" stroke="none" stroke-width="1" fill="none" fill-rule="evenodd">
        <g id="Docs-home-Copy">
            <g id="hero-unit" transform="translate(-1.000000, 0.000000)">
                <g id="bg">
                    <g id="Rectangle-Copy">
                        <use fill-opacity="0.2" fill="url(#linearGradient-1)" xlink:href="#path-2"></use>
                        <use fill="#F7F9FB" xlink:href="#path-2"></use>
                    </g>
                    <g id="Group-8" transform="translate(0.000000, 77.000000)" fill-rule="nonzero" opacity="0.801171875">
                        <path id="Path-2" d="M125.045918,110.5 L134.045918,110.5 L134.045918,101.5 L125.045918,101.5 Z M0.859011943,126.492765 L33.0919046,126.492765 L33.2174539,126.492765 L33.3281102,126.433454 L70.6286343,106.440689 L70.3924286,106.5 L125.545918,106.5 L125.545918,105.5 L70.3924286,105.5 L70.2668794,105.5 L70.156223,105.559311 L32.855699,125.552076 L33.0919046,125.492765 L0.859011943,125.492765 L0.859011943,126.492765 Z" fill="#00A0DB"></path>
                        <path id="Path-8" d="M1134.5,95.5 L1125.5,95.5 L1125.5,104.5 L1134.5,104.5 Z M1134,100.5 L1249.04489,100.5 L1248.69133,100.353553 L1281.30997,132.97219 L1281.45642,133.118636 L1281.66352,133.118636 L1441.15533,133.118636 L1441.15533,132.118636 L1281.66352,132.118636 L1282.01708,132.265083 L1249.39844,99.6464466 L1249.25199,99.5 L1249.04489,99.5 L1134,99.5 L1134,100.5 Z" fill="#9551D1"></path>
                        <path id="Path-7" d="M1082,28.6666667 L1073,28.6666667 L1073,37.6666667 L1082,37.6666667 Z M1081.5,33.6666667 L1441.22791,33.6666667 L1441.22791,32.6666667 L1081.5,32.6666667 L1081.5,33.6666667 Z" fill="#2BB031"></path>
                        <path id="Path-8-Copy" d="M5.5,-4.5 L-3.5,-4.5 L-3.5,4.5 L5.5,4.5 Z M5,0.5 L120.044887,0.5 L119.691334,0.353553391 L152.30997,32.9721898 L152.456417,33.1186365 L152.663524,33.1186365 L257.211983,33.1186365 L257.211983,32.1186365 L152.663524,32.1186365 L153.017077,32.2650831 L120.398441,-0.353553391 L120.251994,-0.5 L120.044887,-0.5 L5,-0.5 L5,0.5 Z" fill="#9551D1"></path>
                        <path id="Path-2-Copy" d="M206.362499,180.5 L215.362499,180.5 L215.362499,171.5 L206.362499,171.5 Z M0.939393923,176.5 L206.862499,176.5 L206.862499,175.5 L0.939393923,175.5 L0.939393923,176.5 Z" fill="#FF8045"></path>
                    </g>
                </g>
            </g>
        </g>
    </g>
</svg>