<?xml version="1.0" encoding="UTF-8"?>
<svg width="40px" height="40px" viewBox="0 0 62 63" version="1.1" xmlns="http://www.w3.org/2000/svg" xmlns:xlink="http://www.w3.org/1999/xlink">
    <!-- Generator: Sketch 51.2 (57519) - http://www.bohemiancoding.com/sketch -->
    <title>ic_sms</title>
    <desc>Created with Sketch.</desc>
    <defs></defs>
    <g id="Final" stroke="none" stroke-width="1" fill="none" fill-rule="evenodd">
        <g id="Docs-home-Copy" transform="translate(-204.000000, -537.000000)">
            <g id="1" transform="translate(164.000000, 418.000000)">
                <g id="SMS" transform="translate(0.000000, 75.000000)">
                    <g id="ic_sms" transform="translate(40.000000, 44.000000)">
                        <path d="M9.07468525,9.3589082 C21.1748164,-2.74122295 40.7926033,-2.74122295 52.8927344,9.3589082 C64.9928656,21.4590393 64.9928656,41.0768262 52.8927344,53.1759246 C40.7926033,65.2760557 21.1748164,65.2760557 9.07468525,53.1759246 C-3.0254459,41.0768262 -3.0254459,21.4590393 9.07468525,9.3589082" id="Fill-1" fill="#EAF9EA"></path>
                        <g id="Group-3" transform="translate(12.000000, 17.000000)">
                            <path d="M1.61130492,6.83413934 L29.6648951,6.83413934 C30.2009115,6.83413934 30.6357148,7.26894262 30.6357148,7.80392623 L30.6357148,25.3974508 C30.6357148,25.9324344 30.2009115,26.3672377 29.6648951,26.3672377 L21.7527148,26.3672377 L14.8103213,31.2543852 C14.1679279,31.7067459 13.2817967,31.2471557 13.2817967,30.4612049 L13.2817967,26.3672377 L1.61130492,26.3672377 C1.07528852,26.3672377 0.641518033,25.9324344 0.641518033,25.3974508 L0.641518033,7.80392623 C0.641518033,7.26894262 1.07528852,6.83413934 1.61130492,6.83413934" id="Fill-4" fill="#6CC16F"></path>
                            <polygon id="Fill-6" fill="#FFFFFF" points="6.29995082 15.1102738 25.5418033 15.1102738 25.5418033 12.4777 6.29995082 12.4777"></polygon>
                            <polygon id="Fill-8" fill="#FFFFFF" points="6.29995082 20.3785197 25.5418033 20.3785197 25.5418033 17.7459459 6.29995082 17.7459459"></polygon>
                            <path d="M6.11859344,4.51439672 L6.11859344,1.19708525 C6.11859344,0.5392 6.65254426,0.00628196721 7.31042951,0.00628196721 L36.1344787,0.00628196721 C36.7923639,0.00628196721 37.3263148,0.5392 37.3263148,1.19708525 L37.3263148,20.8406918 C37.3263148,21.4975443 36.7923639,22.0314951 36.1344787,22.0314951 L33.2963803,22.0314951 L33.1218393,4.52162623 L6.11859344,4.51439672 Z" id="Fill-9" fill="#ABEAAE"></path>
                        </g>
                    </g>
                </g>
            </g>
        </g>
    </g>
</svg>