<?xml version="1.0" encoding="UTF-8"?>
<svg width="63px" height="63px" viewBox="0 0 63 63" version="1.1" xmlns="http://www.w3.org/2000/svg" xmlns:xlink="http://www.w3.org/1999/xlink">
    <!-- Generator: Sketch 51.2 (57519) - http://www.bohemiancoding.com/sketch -->
    <title>ic_voice</title>
    <desc>Created with Sketch.</desc>
    <defs></defs>
    <g id="Final" stroke="none" stroke-width="1" fill="none" fill-rule="evenodd">
        <g id="Docs-home-Copy" transform="translate(-582.000000, -537.000000)">
            <g id="1" transform="translate(164.000000, 418.000000)">
                <g id="Voice" transform="translate(378.000000, 75.000000)">
                    <g id="ic_voice" transform="translate(40.000000, 44.000000)">
                        <path d="M53.0470328,9.2701918 C65.1471639,21.370323 65.1471639,40.9881098 53.0470328,53.088241 C40.9479344,65.1883721 21.3301475,65.1883721 9.23001639,53.088241 C-2.87011475,40.9881098 -2.87011475,21.370323 9.23001639,9.2701918 C21.3301475,-2.82993934 40.9479344,-2.82993934 53.0470328,9.2701918 Z" id="Fill-10" fill="#EAF9EA"></path>
                        <path d="M35.6128672,51.7440689 C32.0590475,50.0193148 26.6926869,46.8321344 21.3098016,41.4492492 C15.9269164,36.0673967 12.7387033,30.7000033 11.0129164,27.1451508 C10.1722279,25.4131672 10.5285393,23.3310689 11.8980148,21.9615934 L15.657359,18.2260033 L23.3557525,25.9708721 L19.6563098,29.7167902 L19.7348016,29.8913311 C19.7978016,30.0338557 21.3366541,33.4358557 25.2354246,37.3335934 C29.1372934,41.2375279 32.5021131,42.7381672 32.6436049,42.8001344 L32.8150475,42.8755279 L36.6342934,39.1781508 L44.5444082,47.0985934 L40.799523,50.8569049 C39.9350803,51.7203148 38.7907525,52.1953967 37.5761951,52.1953967 C36.8997197,52.1953967 36.2211787,52.0404787 35.6128672,51.7440689 Z" id="Fill-11" fill="#6CC16F"></path>
                        <path d="M41.8811607,30.9512803 C41.9111115,30.7581492 42.5989475,26.0052639 38.9088,22.4338869 C35.2217508,18.8676738 30.825177,19.6298705 30.6403082,19.666018 L30.0640131,16.6843623 C30.3098164,16.6347885 36.1636525,15.5534607 41.0198164,20.252641 C45.8780459,24.9518213 44.9206525,31.180559 44.8772754,31.4428869 L41.8811607,30.9512803 Z" id="Fill-12" fill="#6CC16F"></path>
                        <path d="M48.5650475,32.0304393 C48.5753754,31.9540131 49.7785721,23.8466361 43.6551787,17.9205049 C37.489441,11.9551279 30.0141295,13.3380295 29.9387361,13.3514557 L29.3552115,10.3718656 C29.7218508,10.2985377 38.4736869,8.68222623 45.7661951,15.7382262 C53.0587033,22.795259 51.6241623,32.1285541 51.5601295,32.5220459 L48.5650475,32.0304393 Z" id="Fill-13" fill="#ABEAAE"></path>
                        <path d="M35.548318,30.2290525 C35.5565803,30.1598557 35.8178754,28.2130525 34.3285967,26.771282 C32.8289902,25.3202164 31.0185148,25.622823 31.0009574,25.6279869 L30.4184656,22.6494295 C30.5527279,22.6205115 33.7884492,22.0214951 36.4406459,24.5890033 C39.0928426,27.1565115 38.5671541,30.5760689 38.5434,30.720659 L35.548318,30.2290525 Z" id="Fill-14" fill="#ABEAAE"></path>
                    </g>
                </g>
            </g>
        </g>
    </g>
</svg>