<?xml version="1.0" encoding="UTF-8"?>
<svg width="143px" height="24px" viewBox="0 0 143 24" version="1.1" xmlns="http://www.w3.org/2000/svg" xmlns:xlink="http://www.w3.org/1999/xlink">
    <!-- Generator: Sketch 51.2 (57519) - http://www.bohemiancoding.com/sketch -->
    <title>logo</title>
    <desc>Created with Sketch.</desc>
    <defs>
        <polygon id="path-1" points="1.27288335e-15 19.523425 1.27288335e-15 0.0337600915 25.1765754 0.0337600915 25.1765754 19.523425 0 19.523425"></polygon>
    </defs>
    <g id="Final" stroke="none" stroke-width="1" fill="none" fill-rule="evenodd">
        <g id="Docs-home-Copy" transform="translate(-42.000000, -20.000000)">
            <g id="logo" transform="translate(42.000000, 19.000000)">
                <path d="M49.384354,19.4846747 C47.718378,19.4846747 45.7309384,18.7754054 45.7309384,15.3976032 L45.7309384,1.81236821 C45.7309384,1.29623328 46.026019,1.00012807 46.5424101,1.00012807 L48.4699115,1.00012807 C48.9855341,1.00012807 49.2806148,1.29623328 49.2806148,1.81236821 L49.2806148,15.2290589 C49.2806148,16.4042584 49.5695479,16.7749022 49.6407565,16.8048714 L49.7936759,16.8020537 C50.3177514,16.8020537 50.6056599,17.0897061 50.6056599,17.6132693 L50.6056599,18.6734591 C50.6056599,19.1970223 50.3177514,19.4846747 49.7936759,19.4846747 L49.384354,19.4846747 Z" id="Fill-1" fill="#626375"></path>
                <path d="M53.8630221,4.54977885 C53.3471433,4.54977885 53.0515504,4.25469823 53.0515504,3.73907559 L53.0515504,1.81208645 C53.0515504,1.29595152 53.3471433,1.00010246 53.8630221,1.00010246 L55.7902674,1.00010246 C56.3061461,1.00010246 56.6019952,1.29595152 56.6019952,1.81208645 L56.6019952,3.73907559 C56.6019952,4.26263877 56.3143428,4.54977885 55.7902674,4.54977885 L53.8630221,4.54977885 Z M53.8630221,19.4846491 C53.3471433,19.4846491 53.0515504,19.1893123 53.0515504,18.6734335 L53.0515504,7.11124254 C53.0515504,6.5956199 53.3471433,6.30028313 53.8630221,6.30028313 L55.7902674,6.30028313 C56.3143428,6.30028313 56.6019952,6.58767936 56.6019952,7.11124254 L56.6019952,18.6734335 C56.6019952,19.1969967 56.3143428,19.4846491 55.7902674,19.4846491 L53.8630221,19.4846491 Z" id="Fill-3" fill="#626375"></path>
                <path d="M64.4310577,19.4846747 C63.9851069,19.4846747 63.6679977,19.2833436 63.4615437,18.8691549 L59.136,7.17786621 C59.0250886,6.9601418 59.0163796,6.74421041 59.125498,6.56900629 C59.2361532,6.39047227 59.440558,6.3000526 59.7343579,6.3000526 L61.9502802,6.3000526 C62.4269686,6.3000526 62.7517621,6.53801258 62.8908496,6.98934248 L65.201546,15.0658937 L67.5104494,6.99625843 C67.5811458,6.68760206 67.8057862,6.3000526 68.4535803,6.3000526 L70.6700149,6.3000526 C71.0396341,6.3000526 71.2025432,6.47423213 71.2665798,6.5784837 C71.3423991,6.70245855 71.4023373,6.91249857 71.2535163,7.2103968 L66.9564048,18.8363682 C66.7350943,19.2833436 66.4174728,19.4846747 65.9722905,19.4846747 L64.4310577,19.4846747 Z" id="Fill-5" fill="#626375"></path>
                <path d="M78.0307138,8.98879543 C76.2825148,8.98879543 75.5368727,10.1545176 75.5368727,12.8863186 C75.5368727,15.6017262 76.2825148,16.7605324 78.0307138,16.7605324 C79.7778882,16.7605324 80.5240425,15.6017262 80.5240425,12.8863186 C80.5240425,10.1545176 79.7778882,8.98879543 78.0307138,8.98879543 M78.0307138,19.4631328 C74.0699225,19.4631328 72.1439579,17.3196999 72.1439579,12.9093718 C72.1439579,8.45293722 74.0699225,6.28645123 78.0307138,6.28645123 C81.9361775,6.28645123 83.9167012,8.50647181 83.9167012,12.8863186 C83.9167012,17.3117594 81.9915051,19.4631328 78.0307138,19.4631328" id="Fill-7" fill="#626375"></path>
                <path d="M10.9404981,11.5273852 C10.9404981,11.8293818 10.6933169,12.0763069 10.390808,12.0763069 L9.28451184,12.0763069 C8.98225912,12.0763069 8.73430943,11.8293818 8.73430943,11.5273852 L8.73430943,10.4213452 C8.73430943,10.1188364 8.98225912,9.87088668 9.28451184,9.87088668 L10.390808,9.87088668 C10.6933169,9.87088668 10.9404981,10.1188364 10.9404981,10.4213452 L10.9404981,11.5273852 Z" id="Fill-9" fill="#626375"></path>
                <path d="M14.07491,11.5273852 C14.07491,11.8293818 13.8267042,12.0763069 13.5252199,12.0763069 L12.4181553,12.0763069 C12.1161587,12.0763069 11.8697459,11.8293818 11.8697459,11.5273852 L11.8697459,10.4213452 C11.8697459,10.1188364 12.1161587,9.87088668 12.4181553,9.87088668 L13.5252199,9.87088668 C13.8267042,9.87088668 14.07491,10.1188364 14.07491,10.4213452 L14.07491,11.5273852 Z" id="Fill-11" fill="#626375"></path>
                <path d="M17.2090914,11.5273852 C17.2090914,11.8293818 16.9619101,12.0763069 16.6594013,12.0763069 L15.5531051,12.0763069 C15.2503401,12.0763069 15.003415,11.8293818 15.003415,11.5273852 L15.003415,10.4213452 C15.003415,10.1188364 15.2503401,9.87088668 15.5531051,9.87088668 L16.6594013,9.87088668 C16.9619101,9.87088668 17.2090914,10.1188364 17.2090914,10.4213452 L17.2090914,11.5273852 Z" id="Fill-13" fill="#626375"></path>
                <path d="M10.9404981,14.6614129 C10.9404981,14.9639218 10.6933169,15.2113592 10.390808,15.2113592 L9.28451184,15.2113592 C8.98225912,15.2113592 8.73430943,14.9639218 8.73430943,14.6614129 L8.73430943,13.5551168 C8.73430943,13.2536325 8.98225912,13.0059389 9.28451184,13.0059389 L10.390808,13.0059389 C10.6933169,13.0059389 10.9404981,13.2536325 10.9404981,13.5551168 L10.9404981,14.6614129 Z" id="Fill-15" fill="#626375"></path>
                <path d="M14.07491,14.6614129 C14.07491,14.9639218 13.8267042,15.2113592 13.5252199,15.2113592 L12.4181553,15.2113592 C12.1161587,15.2113592 11.8697459,14.9639218 11.8697459,14.6614129 L11.8697459,13.5551168 C11.8697459,13.2536325 12.1161587,13.0059389 12.4181553,13.0059389 L13.5252199,13.0059389 C13.8267042,13.0059389 14.07491,13.2536325 14.07491,13.5551168 L14.07491,14.6614129 Z" id="Fill-17" fill="#626375"></path>
                <path d="M17.2090914,14.6614129 C17.2090914,14.9639218 16.9619101,15.2113592 16.6594013,15.2113592 L15.5531051,15.2113592 C15.2503401,15.2113592 15.003415,14.9639218 15.003415,14.6614129 L15.003415,13.5551168 C15.003415,13.2536325 15.2503401,13.0059389 15.5531051,13.0059389 L16.6594013,13.0059389 C16.9619101,13.0059389 17.2090914,13.2536325 17.2090914,13.5551168 L17.2090914,14.6614129 Z" id="Fill-19" fill="#626375"></path>
                <path d="M10.9404981,17.7969519 C10.9404981,18.0989484 10.6933169,18.3458735 10.390808,18.3458735 L9.28451184,18.3458735 C8.98225912,18.3458735 8.73430943,18.0989484 8.73430943,17.7969519 L8.73430943,16.6891188 C8.73430943,16.3876345 8.98225912,16.1407094 9.28451184,16.1407094 L10.390808,16.1407094 C10.6933169,16.1407094 10.9404981,16.3876345 10.9404981,16.6891188 L10.9404981,17.7969519 Z" id="Fill-21" fill="#626375"></path>
                <path d="M14.07491,17.7969519 C14.07491,18.0989484 13.8267042,18.3458735 13.5252199,18.3458735 L12.4181553,18.3458735 C12.1161587,18.3458735 11.8697459,18.0989484 11.8697459,17.7969519 L11.8697459,16.6891188 C11.8697459,16.3876345 12.1161587,16.1407094 12.4181553,16.1407094 L13.5252199,16.1407094 C13.8267042,16.1407094 14.07491,16.3876345 14.07491,16.6891188 L14.07491,17.7969519 Z" id="Fill-23" fill="#626375"></path>
                <path d="M17.2090914,17.7969519 C17.2090914,18.0989484 16.9619101,18.3458735 16.6594013,18.3458735 L15.5531051,18.3458735 C15.2503401,18.3458735 15.003415,18.0989484 15.003415,17.7969519 L15.003415,16.6891188 C15.003415,16.3876345 15.2503401,16.1407094 15.5531051,16.1407094 L16.6594013,16.1407094 C16.9619101,16.1407094 17.2090914,16.3876345 17.2090914,16.6891188 L17.2090914,17.7969519 Z" id="Fill-25" fill="#626375"></path>
                <g id="Group-29" transform="translate(0.000000, 2.956984)">
                    <mask id="mask-2" fill="white">
                        <use xlink:href="#path-1"></use>
                    </mask>
                    <g id="Clip-28"></g>
                    <path d="M18.8717887,17.3454125 L6.96175094,17.3454125 C4.32421178,17.3454125 2.17796135,15.1994182 2.17796135,12.5616229 C2.17796135,10.3528727 3.67821063,8.44458228 5.82625409,7.9210191 L6.98992704,7.63746507 L7.37389045,6.50273665 C8.2099522,4.02964345 10.5257715,2.36802196 13.1361592,2.36802196 C16.194803,2.36802196 18.788285,4.65310372 19.1694308,7.68305912 L19.32568,8.92716204 L20.4801317,9.41691389 C22.010094,10.0652204 22.9983067,11.5575291 22.9983067,13.2186383 C22.9983067,15.4942427 21.1471369,17.3454125 18.8717887,17.3454125 M21.3302815,7.41154397 C20.8185011,3.34009743 17.346437,0.190265523 13.1361592,0.190265523 C10.1466749,0.190265523 7.53065203,1.77965374 6.08086358,4.15848508 L6.08086358,1.12289445 C6.08086358,0.521206632 5.59316089,0.0337600915 4.99172922,0.0337600915 C4.39055369,0.0337600915 3.902851,0.521206632 3.902851,1.12289445 L3.902851,6.31523751 C1.5926669,7.44663602 -5.12292749e-05,9.8152215 -5.12292749e-05,12.5616229 C-5.12292749e-05,16.406636 3.11699394,19.523425 6.96175094,19.523425 L18.8717887,19.523425 C22.3538424,19.523425 25.1765754,16.7004359 25.1765754,13.2186383 C25.1765754,10.6090191 23.5907732,8.36953139 21.3302815,7.41154397" id="Fill-27" fill="#2BB031" mask="url(#mask-2)"></path>
                </g>
                <path d="M37.5485731,17.0347883 C36.2957612,17.0347883 34.6295291,16.6090731 34.6295291,12.9279936 C34.6295291,9.35039726 36.1771655,8.89138296 37.5250077,8.89138296 C38.7445205,8.89138296 39.8385217,9.19978319 39.8385217,12.9279936 C39.8385217,16.7176791 38.7073793,17.0347883 37.5485731,17.0347883 M38.0145034,6.29636409 C36.6512924,6.29636409 35.5196377,6.61782779 34.6256869,7.24282493 L34.6256869,7.09016169 C34.6256869,6.59221315 34.3403399,6.30686609 33.8413667,6.30686609 L31.9809756,6.30686609 C31.4748304,6.30686609 31.1969116,6.58504105 31.1969116,7.09016169 L31.1969116,7.38447387 L31.1969116,7.39343899 L31.1969116,10.8941914 L31.1969116,17.0680874 L31.1969116,23.6889587 C31.1969116,24.1876757 31.4825148,24.4732789 31.9822564,24.4732789 L33.8446966,24.4732789 C34.3516103,24.4732789 34.6295291,24.1945917 34.6295291,23.6889587 L34.6295291,18.4438495 C35.4299865,19.2309873 36.5406372,19.6285265 37.9440631,19.6285265 C39.9338081,19.6285265 43.2713953,18.7583973 43.2713953,12.9279936 C43.2713953,7.15829663 39.9783776,6.29636409 38.0145034,6.29636409" id="Fill-30" fill="#626375"></path>
                <text id="docs" font-family="SoleilSb, Soleil" font-size="18" font-weight="500" line-spacing="25" fill="#494A5B">
                    <tspan x="104" y="17">docs</tspan>
                </text>
                <path d="M93.2083333,6.5 L93.2083333,18.5" id="Line-3" stroke="#999999" stroke-linecap="square"></path>
            </g>
        </g>
    </g>
</svg>